<svg width="341" height="49" viewBox="0 0 341 49" fill="none" xmlns="http://www.w3.org/2000/svg">
<path d="M-6.19888e-06 48.576V-2.28882e-05H20.032V5.82398H6.84799V42.816H20.032V48.576H-6.19888e-06ZM68.736 42.816V9.02398H57.984V2.94398H86.976V9.02398H75.648V42.816H68.736ZM90.944 2.94398H98.816V3.51998C98.56 3.77598 98.3893 4.07464 98.304 4.41598C98.2613 4.71464 98.24 5.20531 98.24 5.88798V19.136H110.528V2.94398H118.4V3.51998C118.144 3.77598 117.995 4.07464 117.952 4.41598C117.909 4.71464 117.888 5.20531 117.888 5.88798V42.816H110.528V24.896H98.24V42.816H90.944V2.94398ZM136.512 43.648C132.117 43.648 128.725 42.3466 126.336 39.744C123.989 37.1413 122.816 33.5146 122.816 28.864V2.94398H130.56V3.51998C130.347 3.77598 130.197 4.07464 130.112 4.41598C130.069 4.71464 130.048 5.20531 130.048 5.88798V28.928C130.048 31.6586 130.517 33.8133 131.456 35.392C132.395 36.9706 134.101 37.76 136.576 37.76C139.051 37.76 140.779 36.9706 141.76 35.392C142.741 33.8133 143.232 31.5946 143.232 28.736V2.94398H150.272V28.672C150.272 33.792 148.992 37.568 146.432 40C143.872 42.432 140.565 43.648 136.512 43.648ZM154.88 2.94398H162.432L175.936 29.184L175.552 2.94398H182.592V3.51998C182.379 3.77598 182.229 4.07464 182.144 4.41598C182.101 4.71464 182.08 5.20531 182.08 5.88798V42.816H175.36L161.408 14.848V42.816H154.88V2.94398ZM187.2 42.816V2.94398H197.504C201.003 2.94398 203.712 3.43464 205.632 4.41598C207.595 5.35464 209.237 6.69865 210.56 8.44798C211.883 10.24 212.907 12.3733 213.632 14.848C214.4 17.3226 214.784 20.096 214.784 23.168C214.699 27.1786 214.037 30.6773 212.8 33.664C211.563 36.608 209.621 38.8693 206.976 40.448C204.373 42.0266 200.96 42.816 196.736 42.816H187.2ZM194.24 37.184H196.544C199.275 37.184 201.451 36.608 203.072 35.456C204.736 34.304 205.931 32.6826 206.656 30.592C207.381 28.5013 207.723 26.048 207.68 23.232C207.68 20.288 207.36 17.728 206.72 15.552C206.123 13.376 205.056 11.6906 203.52 10.496C201.984 9.30131 199.893 8.70398 197.248 8.70398H194.24V37.184ZM219.776 42.816V2.94398H245.76V8.83198H226.816V19.072H242.368V25.024H226.816V36.928H245.568V42.816H219.776ZM251.392 42.816V2.94398H264C268.864 2.94398 272.427 4.01064 274.688 6.14398C276.949 8.27731 278.08 11.1146 278.08 14.656C278.08 16.1066 277.76 17.5786 277.12 19.072C276.523 20.5226 275.648 21.824 274.496 22.976C273.387 24.128 272.085 24.9813 270.592 25.536L279.168 42.816H271.552L263.488 26.24H258.688V42.816H251.392ZM258.688 20.224H264.512C266.56 20.224 268.096 19.7546 269.12 18.816C270.144 17.8346 270.656 16.512 270.656 14.848C270.656 13.312 270.144 11.9893 269.12 10.88C268.096 9.77064 266.56 9.21598 264.512 9.21598H258.688V20.224ZM340.16 48.576H320.128V42.816H333.312V5.82398H320.128V-2.28882e-05H340.16V48.576Z" fill="black"/>
</svg>
